<svg
  height="512"
  viewBox="0 0 192 192"
  width="512" xmlns="http://www.w3.org/2000/svg"
  xmlns:xlink="http://www.w3.org/1999/xlink">
    <linearGradient
      id="New_Gradient_Swatch_1"
      gradientUnits="userSpaceOnUse"
      x1="50.766"
      x2="141.234"
      y1="149.234"
      y2="58.766">
        <stop offset="0" stop-color="#82C4B0"/>
        <stop offset="1" stop-color="#1A936F"/>
    </linearGradient>
    <g id="_02-ball" data-name="02-ball">
        <g id="Flat">
            <path d="m157.657 170.343-24-24a8 8 0 0 0 -5.657-2.343h-64a8 8 0 0 0 -5.657 2.343l-24 24a8 8 0 0 0 -2.343 5.657v8a8 8 0 0 0 8 8h112a8 8 0 0 0 8-8v-8a8 8 0 0 0 -2.343-5.657z" fill="#1A936F"/>
            <path d="m56 176v-8a8 8 0 0 1 2.343-5.657l18.344-18.343h-12.687a8 8 0 0 0 -5.657 2.343l-24 24a8 8 0 0 0 -2.343 5.657v8a8 8 0 0 0 8 8h112a8 8 0 0 0 8-8h-96a8 8 0 0 1 -8-8z" fill="#188665"/>
            <circle cx="96" cy="104" fill="url(#New_Gradient_Swatch_1)" r="64"/>
            <circle cx="128" cy="80" fill="#82C4B0" r="8"/>
            <path d="m86 99.326a14.245 14.245 0 0 1 -14.13-14.326 2 2 0 0 0 -4 0 14.246 14.246 0 0 1 -14.131 14.326 2 2 0 0 0 0 4 14.246 14.246 0 0 1 14.131 14.326 2 2 0 0 0 4 0 14.245 14.245 0 0 1 14.13-14.326 2 2 0 0 0 0-4z" fill="#1A936F"/>
            <path d="m96 16.326a14.245 14.245 0 0 1 -14.13-14.326 2 2 0 0 0 -4 0 14.246 14.246 0 0 1 -14.131 14.326 2 2 0 0 0 0 4 14.246 14.246 0 0 1 14.131 14.326 2 2 0 0 0 4 0 14.245 14.245 0 0 1 14.13-14.326 2 2 0 0 0 0-4z" fill="#1A936F"/>
            <path d="m34 54.326a14.245 14.245 0 0 1 -14.13-14.326 2 2 0 1 0 -4 0 14.246 14.246 0 0 1 -14.131 14.326 2 2 0 1 0 0 4 14.246 14.246 0 0 1 14.131 14.326 2 2 0 1 0 4 0 14.245 14.245 0 0 1 14.13-14.326 2 2 0 0 0 0-4z" fill="#1A936F"/>
        </g>
    </g>
</svg>